<svg xmlns="http://www.w3.org/2000/svg" viewBox="0 0 500 399.35"><defs><style>.cls-1{isolation:isolate;}.cls-2{fill:#4d2558;}.cls-3,.cls-7{fill:#b047d7;mix-blend-mode:multiply;}.cls-3{opacity:0.4;}.cls-4{fill:#6847d7;}.cls-5{fill:#ffaf47;}.cls-6{fill:#ffbdff;mix-blend-mode:soft-light;}.cls-7{opacity:0.2;}.cls-8{fill:#f447a9;}</style></defs><title>vite</title><g class="cls-1"><g id="OBJECTS"><path class="cls-2" d="M412.16,340h87.56l-16,27.73-10.4,18H385.74A98.94,98.94,0,0,0,300,336.21H200a99,99,0,0,0-85.74,49.53H26.66l-10.39-18L.28,340H87.84l17.36-30.1L87.84,279.82H.28l26.38-45.75h87.57A99,99,0,0,0,200,283.6H300a99,99,0,0,0,85.75-49.53H473.3l26.42,45.75H412.16l-17.39,30.07Z"/><path class="cls-3" d="M483.7,367.72l-10.4,18H385.74A98.94,98.94,0,0,0,300,336.21H200a99,99,0,0,0-85.74,49.53H26.66l-10.39-18H96.74a106,106,0,0,1,40.91-36.22,122.73,122.73,0,0,1,55.89-13.27H306.43c39.94,0,76.85,18.86,96.83,49.49Z"/><polygon class="cls-4" points="317.16 171.86 317.16 386.89 182.82 386.89 182.82 171.86 226.22 111.31 249.99 78.18 273.75 111.31 317.16 171.86"/><path class="cls-5" d="M317.16,171.86v.82a116,116,0,0,1-134.34,0v-.82l43.4-60.55L250,78.18l23.76,33.13Z"/><path class="cls-2" d="M273.75,111.31A116.06,116.06,0,0,1,250,113.75a116.16,116.16,0,0,1-23.77-2.44L250,78.18Z"/><polygon class="cls-6" points="249.99 78.18 223.15 190.87 223.15 385.73 182.82 385.73 182.82 171.86 249.99 78.18"/><polygon class="cls-7" points="249.99 78.18 277.86 190.87 277.86 385.73 317.16 385.73 317.16 171.86 249.99 78.18"/><path class="cls-2" d="M458.05,171.58a8.91,8.91,0,1,1-8.9-8.91A8.91,8.91,0,0,1,458.05,171.58Z"/><circle class="cls-2" cx="355.62" cy="212.2" r="8.9"/><path class="cls-2" d="M358.37,213.67c-1.75,0-2.75,0-2.83,0l.16-3c.63,0,63.73,2.81,92.21-39.91l2.47,1.65C424.48,211.25,371.21,213.67,358.37,213.67Z"/><rect class="cls-5" x="388.03" y="179.46" width="41.6" height="41.6" transform="translate(-44.86 162.67) rotate(-21.36)"/><path class="cls-2" d="M158.55,192.21a6.51,6.51,0,1,1-6.51-6.5A6.5,6.5,0,0,1,158.55,192.21Z"/><path class="cls-2" d="M37.1,192.21a6.51,6.51,0,1,1-6.51-6.5A6.5,6.5,0,0,1,37.1,192.21Z"/><rect class="cls-2" x="34.4" y="191.13" width="114.95" height="2.17"/><circle class="cls-4" cx="91.88" cy="192.21" r="30.46" transform="translate(-66.56 49.79) rotate(-22.5)"/><path class="cls-2" d="M417.17,125.87a132.93,132.93,0,0,0-200.4-60.41l-1.23-1.74A135.07,135.07,0,0,1,419.15,125.1Z"/><circle class="cls-8" cx="332.11" cy="59.45" r="46.99" transform="translate(55.23 252.25) rotate(-45)"/><path class="cls-2" d="M424.53,125a6.39,6.39,0,1,1-6.83-5.91A6.38,6.38,0,0,1,424.53,125Z"/><path class="cls-2" d="M222.52,64.16a6.38,6.38,0,1,1-6.82-5.92A6.37,6.37,0,0,1,222.52,64.16Z"/></g></g></svg>